<svg width="20" height="20" viewBox="0 0 80 80" fill="none" xmlns="http://www.w3.org/2000/svg">
<g id="vuesax/linear/profile">
<g id="profile">
<path id="Vector" d="M40.5335 36.2346C40.2002 36.2013 39.8002 36.2013 39.4335 36.2346C31.5002 35.968 25.2002 29.468 25.2002 21.468C25.2002 13.3013 31.8002 6.66797 40.0002 6.66797C48.1669 6.66797 54.8002 13.3013 54.8002 21.468C54.7669 29.468 48.4669 35.968 40.5335 36.2346Z" stroke="#939393" stroke-width="3" stroke-linecap="round" stroke-linejoin="round"/>
<path id="Vector_2" d="M23.8664 48.532C15.7997 53.932 15.7997 62.732 23.8664 68.0987C33.0331 74.232 48.0664 74.232 57.2331 68.0987C65.2997 62.6987 65.2997 53.8987 57.2331 48.532C48.0997 42.432 33.0664 42.432 23.8664 48.532Z" stroke="#939393" stroke-width="3" stroke-linecap="round" stroke-linejoin="round"/>
</g>
</g>
</svg>
